<?xml version="1.0" encoding="UTF-8"?>
<!DOCTYPE svg
PUBLIC "-//W3C//DTD SVG 1.1//EN"
       "http://www.w3.org/Graphics/SVG/1.1/DTD/svg11.dtd">
<svg version="1.1" xmlns="http://www.w3.org/2000/svg" xmlns:xlink="http://www.w3.org/1999/xlink" width="20.459" height="21.6504">
 <g>
  <rect height="21.6504" opacity="0" width="20.459" x="0" y="0"/>
  <path d="M3.20312 21.3477L17.2754 21.3477C19.1113 21.3477 20.0781 20.4102 20.0781 18.5742L20.0781 17.9004L15.2051 13.291C14.7949 12.9102 14.2871 12.7246 13.7793 12.7246C13.2617 12.7246 12.8027 12.8906 12.3633 13.2812L8.11523 17.0312L6.41602 15.5176C6.01562 15.1562 5.5957 14.9707 5.14648 14.9707C4.72656 14.9707 4.33594 15.166 3.93555 15.5078L0.390625 18.5742C0.390625 20.4102 1.36719 21.3477 3.20312 21.3477ZM7.35352 13.5254C8.58398 13.5254 9.58984 12.5 9.58984 11.2793C9.58984 10.0586 8.58398 9.05273 7.35352 9.05273C6.12305 9.05273 5.12695 10.0586 5.12695 11.2793C5.12695 12.5 6.12305 13.5254 7.35352 13.5254ZM3.06641 21.6211L17.3926 21.6211C19.4238 21.6211 20.459 20.6055 20.459 18.5938L20.459 8.56445C20.459 6.55273 19.4238 5.53711 17.3926 5.53711L3.06641 5.53711C1.01562 5.53711 0 6.55273 0 8.56445L0 18.5938C0 20.6055 1.01562 21.6211 3.06641 21.6211ZM3.08594 20.0488C2.10938 20.0488 1.57227 19.5215 1.57227 18.5059L1.57227 8.65234C1.57227 7.63672 2.10938 7.10938 3.08594 7.10938L17.3633 7.10938C18.3301 7.10938 18.8867 7.63672 18.8867 8.65234L18.8867 18.5059C18.8867 19.5215 18.3301 20.0488 17.3633 20.0488ZM2.06055 3.96484L18.4082 3.96484C18.2617 3.07617 17.8418 2.58789 16.8652 2.58789L3.60352 2.58789C2.62695 2.58789 2.20703 3.07617 2.06055 3.96484ZM4.07227 1.25977L16.3965 1.25977C16.3379 0.429688 15.8691 0 14.9609 0L5.49805 0C4.59961 0 4.13086 0.429688 4.07227 1.25977Z" fill="#000000" fill-opacity="0.85"/>
 </g>
</svg>

